<svg xmlns="http://www.w3.org/2000/svg" viewBox="0 0 940 340" font-family="sans-serif" font-size="13">
<rect width="940" height="340" fill="white"/>
<polygon points="262.0,310.0 262.8,308.6 263.3,307.2 263.7,305.8 264.1,304.4 264.5,302.9 264.8,301.5 265.1,300.1 265.4,298.7 265.7,297.3 266.0,295.9 266.3,294.5 266.6,293.1 266.8,291.7 267.1,290.3 267.3,288.8 267.5,287.4 267.8,286.0 268.0,284.6 268.2,283.2 268.4,281.8 268.6,280.4 268.8,279.0 269.0,277.6 269.2,276.2 269.4,274.7 269.6,273.3 269.8,271.9 269.9,270.5 270.1,269.1 270.3,267.7 270.4,266.3 270.6,264.9 270.7,263.5 270.9,262.1 271.0,260.6 271.2,259.2 271.3,257.8 271.4,256.4 271.6,255.0 271.7,253.6 271.8,252.2 271.9,250.8 272.0,249.4 272.1,248.0 272.2,246.5 272.3,245.1 272.4,243.7 272.5,242.3 272.6,240.9 272.7,239.5 272.8,238.1 272.8,236.7 272.9,235.3 273.0,233.9 273.0,232.4 273.1,231.0 273.1,229.6 273.2,228.2 273.2,226.8 273.3,225.4 273.3,224.0 273.3,222.6 273.4,221.2 273.4,219.8 273.4,218.3 273.4,216.9 273.5,215.5 273.5,214.1 273.5,212.7 273.5,211.3 273.5,209.9 273.5,208.5 273.4,207.1 273.4,205.7 273.4,204.2 273.4,202.8 273.3,201.4 273.3,200.0 273.3,198.6 273.2,197.2 273.2,195.8 273.1,194.4 273.1,193.0 273.0,191.6 273.0,190.1 272.9,188.7 272.8,187.3 272.8,185.9 272.7,184.5 272.6,183.1 272.5,181.7 272.4,180.3 272.3,178.9 272.2,177.5 272.1,176.0 272.0,174.6 271.9,173.2 271.8,171.8 271.7,170.4 271.6,169.0 271.4,167.6 271.3,166.2 271.2,164.8 271.0,163.4 270.9,161.9 270.7,160.5 270.6,159.1 270.4,157.7 270.3,156.3 270.1,154.9 269.9,153.5 269.8,152.1 269.6,150.7 269.4,149.3 269.2,147.8 269.0,146.4 268.8,145.0 268.6,143.6 268.4,142.2 268.2,140.8 268.0,139.4 267.8,138.0 267.5,136.6 267.3,135.2 267.1,133.7 266.8,132.3 266.6,130.9 266.3,129.5 266.0,128.1 265.7,126.7 265.4,125.3 265.1,123.9 264.8,122.5 264.5,121.1 264.1,119.6 263.7,118.2 263.3,116.8 262.8,115.4 262.0,114.0 258.0,114.0 258.6,115.4 258.9,116.8 259.2,118.2 259.5,119.6 259.7,121.1 260.0,122.5 260.2,123.9 260.4,125.3 260.6,126.7 260.8,128.1 261.0,129.5 261.2,130.9 261.3,132.3 261.5,133.7 261.7,135.2 261.8,136.6 262.0,138.0 262.2,139.4 262.3,140.8 262.5,142.2 262.6,143.6 262.7,145.0 262.9,146.4 263.0,147.8 263.1,149.3 263.3,150.7 263.4,152.1 263.5,153.5 263.6,154.9 263.7,156.3 263.9,157.7 264.0,159.1 264.1,160.5 264.2,161.9 264.3,163.4 264.4,164.8 264.5,166.2 264.6,167.6 264.6,169.0 264.7,170.4 264.8,171.8 264.9,173.2 265.0,174.6 265.0,176.0 265.1,177.5 265.2,178.9 265.2,180.3 265.3,181.7 265.4,183.1 265.4,184.5 265.5,185.9 265.5,187.3 265.6,188.7 265.6,190.1 265.7,191.6 265.7,193.0 265.7,194.4 265.8,195.8 265.8,197.2 265.8,198.6 265.9,200.0 265.9,201.4 265.9,202.8 265.9,204.2 265.9,205.7 265.9,207.1 266.0,208.5 266.0,209.9 266.0,211.3 266.0,212.7 266.0,214.1 266.0,215.5 265.9,216.9 265.9,218.3 265.9,219.8 265.9,221.2 265.9,222.6 265.9,224.0 265.8,225.4 265.8,226.8 265.8,228.2 265.7,229.6 265.7,231.0 265.7,232.4 265.6,233.9 265.6,235.3 265.5,236.7 265.5,238.1 265.4,239.5 265.4,240.9 265.3,242.3 265.2,243.7 265.2,245.1 265.1,246.5 265.0,248.0 265.0,249.4 264.9,250.8 264.8,252.2 264.7,253.6 264.6,255.0 264.6,256.4 264.5,257.8 264.4,259.2 264.3,260.6 264.2,262.1 264.1,263.5 264.0,264.9 263.9,266.3 263.7,267.7 263.6,269.1 263.5,270.5 263.4,271.9 263.3,273.3 263.1,274.7 263.0,276.2 262.9,277.6 262.7,279.0 262.6,280.4 262.5,281.8 262.3,283.2 262.2,284.6 262.0,286.0 261.8,287.4 261.7,288.8 261.5,290.3 261.3,291.7 261.2,293.1 261.0,294.5 260.8,295.9 260.6,297.3 260.4,298.7 260.2,300.1 260.0,301.5 259.7,302.9 259.5,304.4 259.2,305.8 258.9,307.2 258.6,308.6 258.0,310.0" fill="#e0f2f1" stroke="#00695c" stroke-width="1.3"/>
<polygon points="98.0,310.0 97.2,308.6 96.7,307.2 96.3,305.8 95.9,304.4 95.5,302.9 95.2,301.5 94.9,300.1 94.6,298.7 94.3,297.3 94.0,295.9 93.7,294.5 93.4,293.1 93.2,291.7 92.9,290.3 92.7,288.8 92.5,287.4 92.2,286.0 92.0,284.6 91.8,283.2 91.6,281.8 91.4,280.4 91.2,279.0 91.0,277.6 90.8,276.2 90.6,274.7 90.4,273.3 90.2,271.9 90.1,270.5 89.9,269.1 89.7,267.7 89.6,266.3 89.4,264.9 89.3,263.5 89.1,262.1 89.0,260.6 88.8,259.2 88.7,257.8 88.6,256.4 88.4,255.0 88.3,253.6 88.2,252.2 88.1,250.8 88.0,249.4 87.9,248.0 87.8,246.5 87.7,245.1 87.6,243.7 87.5,242.3 87.4,240.9 87.3,239.5 87.2,238.1 87.2,236.7 87.1,235.3 87.0,233.9 87.0,232.4 86.9,231.0 86.9,229.6 86.8,228.2 86.8,226.8 86.7,225.4 86.7,224.0 86.7,222.6 86.6,221.2 86.6,219.8 86.6,218.3 86.6,216.9 86.5,215.5 86.5,214.1 86.5,212.7 86.5,211.3 86.5,209.9 86.5,208.5 86.6,207.1 86.6,205.7 86.6,204.2 86.6,202.8 86.7,201.4 86.7,200.0 86.7,198.6 86.8,197.2 86.8,195.8 86.9,194.4 86.9,193.0 87.0,191.6 87.0,190.1 87.1,188.7 87.2,187.3 87.2,185.9 87.3,184.5 87.4,183.1 87.5,181.7 87.6,180.3 87.7,178.9 87.8,177.5 87.9,176.0 88.0,174.6 88.1,173.2 88.2,171.8 88.3,170.4 88.4,169.0 88.6,167.6 88.7,166.2 88.8,164.8 89.0,163.4 89.1,161.9 89.3,160.5 89.4,159.1 89.6,157.7 89.7,156.3 89.9,154.9 90.1,153.5 90.2,152.1 90.4,150.7 90.6,149.3 90.8,147.8 91.0,146.4 91.2,145.0 91.4,143.6 91.6,142.2 91.8,140.8 92.0,139.4 92.2,138.0 92.5,136.6 92.7,135.2 92.9,133.7 93.2,132.3 93.4,130.9 93.7,129.5 94.0,128.1 94.3,126.7 94.6,125.3 94.9,123.9 95.2,122.5 95.5,121.1 95.9,119.6 96.3,118.2 96.7,116.8 97.2,115.4 98.0,114.0 102.0,114.0 101.4,115.4 101.1,116.8 100.8,118.2 100.5,119.6 100.3,121.1 100.0,122.5 99.8,123.9 99.6,125.3 99.4,126.7 99.2,128.1 99.0,129.5 98.8,130.9 98.7,132.3 98.5,133.7 98.3,135.2 98.2,136.6 98.0,138.0 97.8,139.4 97.7,140.8 97.5,142.2 97.4,143.6 97.3,145.0 97.1,146.4 97.0,147.8 96.9,149.3 96.7,150.7 96.6,152.1 96.5,153.5 96.4,154.9 96.3,156.3 96.1,157.7 96.0,159.1 95.9,160.5 95.8,161.9 95.7,163.4 95.6,164.8 95.5,166.2 95.4,167.6 95.4,169.0 95.3,170.4 95.2,171.8 95.1,173.2 95.0,174.6 95.0,176.0 94.9,177.5 94.8,178.9 94.8,180.3 94.7,181.7 94.6,183.1 94.6,184.5 94.5,185.9 94.5,187.3 94.4,188.7 94.4,190.1 94.3,191.6 94.3,193.0 94.3,194.4 94.2,195.8 94.2,197.2 94.2,198.6 94.1,200.0 94.1,201.4 94.1,202.8 94.1,204.2 94.1,205.7 94.1,207.1 94.0,208.5 94.0,209.9 94.0,211.3 94.0,212.7 94.0,214.1 94.0,215.5 94.1,216.9 94.1,218.3 94.1,219.8 94.1,221.2 94.1,222.6 94.1,224.0 94.2,225.4 94.2,226.8 94.2,228.2 94.3,229.6 94.3,231.0 94.3,232.4 94.4,233.9 94.4,235.3 94.5,236.7 94.5,238.1 94.6,239.5 94.6,240.9 94.7,242.3 94.8,243.7 94.8,245.1 94.9,246.5 95.0,248.0 95.0,249.4 95.1,250.8 95.2,252.2 95.3,253.6 95.4,255.0 95.4,256.4 95.5,257.8 95.6,259.2 95.7,260.6 95.8,262.1 95.9,263.5 96.0,264.9 96.1,266.3 96.3,267.7 96.4,269.1 96.5,270.5 96.6,271.9 96.7,273.3 96.9,274.7 97.0,276.2 97.1,277.6 97.3,279.0 97.4,280.4 97.5,281.8 97.7,283.2 97.8,284.6 98.0,286.0 98.2,287.4 98.3,288.8 98.5,290.3 98.7,291.7 98.8,293.1 99.0,294.5 99.2,295.9 99.4,297.3 99.6,298.7 99.8,300.1 100.0,301.5 100.3,302.9 100.5,304.4 100.8,305.8 101.1,307.2 101.4,308.6 102.0,310.0" fill="#eceff1" stroke="#90a4ae" stroke-width="0.8"/>
<text x="180" y="332" text-anchor="middle" fill="#00695c">skavl lamell-roleg</text>
<polygon points="562.0,310.0 564.3,308.6 565.4,307.2 566.3,305.8 567.0,304.4 567.6,302.9 568.2,301.5 568.8,300.1 569.3,298.7 569.8,297.3 570.2,295.9 570.6,294.5 571.1,293.1 571.5,291.7 571.8,290.3 572.2,288.8 572.6,287.4 572.9,286.0 573.2,284.6 573.5,283.2 573.9,281.8 574.2,280.4 574.4,279.0 574.7,277.6 575.0,276.2 575.3,274.7 575.5,273.3 575.8,271.9 576.0,270.5 576.2,269.1 576.5,267.7 576.7,266.3 576.9,264.9 577.1,263.5 577.3,262.1 577.5,260.6 577.7,259.2 577.9,257.8 578.0,256.4 578.2,255.0 578.4,253.6 578.5,252.2 578.7,250.8 578.8,249.4 579.0,248.0 579.1,246.5 579.2,245.1 579.4,243.7 579.5,242.3 579.6,240.9 579.7,239.5 579.8,238.1 579.9,236.7 580.0,235.3 580.1,233.9 580.1,232.4 580.2,231.0 580.3,229.6 580.4,228.2 580.4,226.8 580.5,225.4 580.5,224.0 580.6,222.6 580.6,221.2 580.6,219.8 580.6,218.3 580.7,216.9 580.7,215.5 580.7,214.1 580.7,212.7 580.7,211.3 580.7,209.9 580.7,208.5 580.7,207.1 580.6,205.7 580.6,204.2 580.6,202.8 580.6,201.4 580.5,200.0 580.5,198.6 580.4,197.2 580.4,195.8 580.3,194.4 580.2,193.0 580.1,191.6 580.1,190.1 580.0,188.7 579.9,187.3 579.8,185.9 579.7,184.5 579.6,183.1 579.5,181.7 579.4,180.3 579.2,178.9 579.1,177.5 579.0,176.0 578.8,174.6 578.7,173.2 578.5,171.8 578.4,170.4 578.2,169.0 578.0,167.6 577.9,166.2 577.7,164.8 577.5,163.4 577.3,161.9 577.1,160.5 576.9,159.1 576.7,157.7 576.5,156.3 576.2,154.9 576.0,153.5 575.8,152.1 575.5,150.7 575.3,149.3 575.0,147.8 574.7,146.4 574.4,145.0 574.2,143.6 573.9,142.2 573.5,140.8 573.2,139.4 572.9,138.0 572.6,136.6 572.2,135.2 571.8,133.7 571.5,132.3 571.1,130.9 570.6,129.5 570.2,128.1 569.8,126.7 569.3,125.3 568.8,123.9 568.2,122.5 567.6,121.1 567.0,119.6 566.3,118.2 565.4,116.8 564.3,115.4 562.0,114.0 558.0,114.0 559.6,115.4 560.3,116.8 560.9,118.2 561.4,119.6 561.8,121.1 562.2,122.5 562.6,123.9 562.9,125.3 563.3,126.7 563.6,128.1 563.9,129.5 564.2,130.9 564.4,132.3 564.7,133.7 564.9,135.2 565.2,136.6 565.4,138.0 565.6,139.4 565.8,140.8 566.1,142.2 566.3,143.6 566.5,145.0 566.6,146.4 566.8,147.8 567.0,149.3 567.2,150.7 567.3,152.1 567.5,153.5 567.7,154.9 567.8,156.3 568.0,157.7 568.1,159.1 568.3,160.5 568.4,161.9 568.5,163.4 568.7,164.8 568.8,166.2 568.9,167.6 569.0,169.0 569.1,170.4 569.2,171.8 569.3,173.2 569.4,174.6 569.5,176.0 569.6,177.5 569.7,178.9 569.8,180.3 569.9,181.7 569.9,183.1 570.0,184.5 570.1,185.9 570.1,187.3 570.2,188.7 570.3,190.1 570.3,191.6 570.4,193.0 570.4,194.4 570.5,195.8 570.5,197.2 570.5,198.6 570.6,200.0 570.6,201.4 570.6,202.8 570.6,204.2 570.7,205.7 570.7,207.1 570.7,208.5 570.7,209.9 570.7,211.3 570.7,212.7 570.7,214.1 570.7,215.5 570.7,216.9 570.7,218.3 570.6,219.8 570.6,221.2 570.6,222.6 570.6,224.0 570.5,225.4 570.5,226.8 570.5,228.2 570.4,229.6 570.4,231.0 570.3,232.4 570.3,233.9 570.2,235.3 570.1,236.7 570.1,238.1 570.0,239.5 569.9,240.9 569.9,242.3 569.8,243.7 569.7,245.1 569.6,246.5 569.5,248.0 569.4,249.4 569.3,250.8 569.2,252.2 569.1,253.6 569.0,255.0 568.9,256.4 568.8,257.8 568.7,259.2 568.5,260.6 568.4,262.1 568.3,263.5 568.1,264.9 568.0,266.3 567.8,267.7 567.7,269.1 567.5,270.5 567.3,271.9 567.2,273.3 567.0,274.7 566.8,276.2 566.6,277.6 566.5,279.0 566.3,280.4 566.1,281.8 565.8,283.2 565.6,284.6 565.4,286.0 565.2,287.4 564.9,288.8 564.7,290.3 564.4,291.7 564.2,293.1 563.9,294.5 563.6,295.9 563.3,297.3 562.9,298.7 562.6,300.1 562.2,301.5 561.8,302.9 561.4,304.4 560.9,305.8 560.3,307.2 559.6,308.6 558.0,310.0" fill="#e0f2f1" stroke="#00695c" stroke-width="1.3"/>
<polygon points="398.0,310.0 395.7,308.6 394.6,307.2 393.7,305.8 393.0,304.4 392.4,302.9 391.8,301.5 391.2,300.1 390.7,298.7 390.2,297.3 389.8,295.9 389.4,294.5 388.9,293.1 388.5,291.7 388.2,290.3 387.8,288.8 387.4,287.4 387.1,286.0 386.8,284.6 386.5,283.2 386.1,281.8 385.8,280.4 385.6,279.0 385.3,277.6 385.0,276.2 384.7,274.7 384.5,273.3 384.2,271.9 384.0,270.5 383.8,269.1 383.5,267.7 383.3,266.3 383.1,264.9 382.9,263.5 382.7,262.1 382.5,260.6 382.3,259.2 382.1,257.8 382.0,256.4 381.8,255.0 381.6,253.6 381.5,252.2 381.3,250.8 381.2,249.4 381.0,248.0 380.9,246.5 380.8,245.1 380.6,243.7 380.5,242.3 380.4,240.9 380.3,239.5 380.2,238.1 380.1,236.7 380.0,235.3 379.9,233.9 379.9,232.4 379.8,231.0 379.7,229.6 379.6,228.2 379.6,226.8 379.5,225.4 379.5,224.0 379.4,222.6 379.4,221.2 379.4,219.8 379.4,218.3 379.3,216.9 379.3,215.5 379.3,214.1 379.3,212.7 379.3,211.3 379.3,209.9 379.3,208.5 379.3,207.1 379.4,205.7 379.4,204.2 379.4,202.8 379.4,201.4 379.5,200.0 379.5,198.6 379.6,197.2 379.6,195.8 379.7,194.4 379.8,193.0 379.9,191.6 379.9,190.1 380.0,188.7 380.1,187.3 380.2,185.9 380.3,184.5 380.4,183.1 380.5,181.7 380.6,180.3 380.8,178.9 380.9,177.5 381.0,176.0 381.2,174.6 381.3,173.2 381.5,171.8 381.6,170.4 381.8,169.0 382.0,167.6 382.1,166.2 382.3,164.8 382.5,163.4 382.7,161.9 382.9,160.5 383.1,159.1 383.3,157.7 383.5,156.3 383.8,154.9 384.0,153.5 384.2,152.1 384.5,150.7 384.7,149.3 385.0,147.8 385.3,146.4 385.6,145.0 385.8,143.6 386.1,142.2 386.5,140.8 386.8,139.4 387.1,138.0 387.4,136.6 387.8,135.2 388.2,133.7 388.5,132.3 388.9,130.9 389.4,129.5 389.8,128.1 390.2,126.7 390.7,125.3 391.2,123.9 391.8,122.5 392.4,121.1 393.0,119.6 393.7,118.2 394.6,116.8 395.7,115.4 398.0,114.0 402.0,114.0 400.4,115.4 399.7,116.8 399.1,118.2 398.6,119.6 398.2,121.1 397.8,122.5 397.4,123.9 397.1,125.3 396.7,126.7 396.4,128.1 396.1,129.5 395.8,130.9 395.6,132.3 395.3,133.7 395.1,135.2 394.8,136.6 394.6,138.0 394.4,139.4 394.2,140.8 393.9,142.2 393.7,143.6 393.5,145.0 393.4,146.4 393.2,147.8 393.0,149.3 392.8,150.7 392.7,152.1 392.5,153.5 392.3,154.9 392.2,156.3 392.0,157.7 391.9,159.1 391.7,160.5 391.6,161.9 391.5,163.4 391.3,164.8 391.2,166.2 391.1,167.6 391.0,169.0 390.9,170.4 390.8,171.8 390.7,173.2 390.6,174.6 390.5,176.0 390.4,177.5 390.3,178.9 390.2,180.3 390.1,181.7 390.1,183.1 390.0,184.5 389.9,185.9 389.9,187.3 389.8,188.7 389.7,190.1 389.7,191.6 389.6,193.0 389.6,194.4 389.5,195.8 389.5,197.2 389.5,198.6 389.4,200.0 389.4,201.4 389.4,202.8 389.4,204.2 389.3,205.7 389.3,207.1 389.3,208.5 389.3,209.9 389.3,211.3 389.3,212.7 389.3,214.1 389.3,215.5 389.3,216.9 389.3,218.3 389.4,219.8 389.4,221.2 389.4,222.6 389.4,224.0 389.5,225.4 389.5,226.8 389.5,228.2 389.6,229.6 389.6,231.0 389.7,232.4 389.7,233.9 389.8,235.3 389.9,236.7 389.9,238.1 390.0,239.5 390.1,240.9 390.1,242.3 390.2,243.7 390.3,245.1 390.4,246.5 390.5,248.0 390.6,249.4 390.7,250.8 390.8,252.2 390.9,253.6 391.0,255.0 391.1,256.4 391.2,257.8 391.3,259.2 391.5,260.6 391.6,262.1 391.7,263.5 391.9,264.9 392.0,266.3 392.2,267.7 392.3,269.1 392.5,270.5 392.7,271.9 392.8,273.3 393.0,274.7 393.2,276.2 393.4,277.6 393.5,279.0 393.7,280.4 393.9,281.8 394.2,283.2 394.4,284.6 394.6,286.0 394.8,287.4 395.1,288.8 395.3,290.3 395.6,291.7 395.8,293.1 396.1,294.5 396.4,295.9 396.7,297.3 397.1,298.7 397.4,300.1 397.8,301.5 398.2,302.9 398.6,304.4 399.1,305.8 399.7,307.2 400.4,308.6 402.0,310.0" fill="#eceff1" stroke="#90a4ae" stroke-width="0.8"/>
<text x="480" y="332" text-anchor="middle" fill="#00695c">skavl lamell-open</text>
<polygon points="862.0,310.0 862.4,308.6 862.8,307.2 863.1,305.8 863.3,304.4 863.6,302.9 863.9,301.5 864.1,300.1 864.3,298.7 864.6,297.3 864.8,295.9 865.0,294.5 865.2,293.1 865.4,291.7 865.6,290.3 865.8,288.8 866.0,287.4 866.2,286.0 866.4,284.6 866.6,283.2 866.7,281.8 866.9,280.4 867.1,279.0 867.2,277.6 867.4,276.2 867.6,274.7 867.7,273.3 867.9,271.9 868.0,270.5 868.2,269.1 868.3,267.7 868.5,266.3 868.6,264.9 868.7,263.5 868.9,262.1 869.0,260.6 869.1,259.2 869.2,257.8 869.4,256.4 869.5,255.0 869.6,253.6 869.7,252.2 869.8,250.8 869.9,249.4 870.0,248.0 870.1,246.5 870.2,245.1 870.2,243.7 870.3,242.3 870.4,240.9 870.5,239.5 870.5,238.1 870.6,236.7 870.7,235.3 870.7,233.9 870.8,232.4 870.8,231.0 870.9,229.6 870.9,228.2 871.0,226.8 871.0,225.4 871.0,224.0 871.1,222.6 871.1,221.2 871.1,219.8 871.1,218.3 871.2,216.9 871.2,215.5 871.2,214.1 871.2,212.7 871.2,211.3 871.2,209.9 871.2,208.5 871.2,207.1 871.1,205.7 871.1,204.2 871.1,202.8 871.1,201.4 871.0,200.0 871.0,198.6 871.0,197.2 870.9,195.8 870.9,194.4 870.8,193.0 870.8,191.6 870.7,190.1 870.7,188.7 870.6,187.3 870.5,185.9 870.5,184.5 870.4,183.1 870.3,181.7 870.2,180.3 870.2,178.9 870.1,177.5 870.0,176.0 869.9,174.6 869.8,173.2 869.7,171.8 869.6,170.4 869.5,169.0 869.4,167.6 869.2,166.2 869.1,164.8 869.0,163.4 868.9,161.9 868.7,160.5 868.6,159.1 868.5,157.7 868.3,156.3 868.2,154.9 868.0,153.5 867.9,152.1 867.7,150.7 867.6,149.3 867.4,147.8 867.2,146.4 867.1,145.0 866.9,143.6 866.7,142.2 866.6,140.8 866.4,139.4 866.2,138.0 866.0,136.6 865.8,135.2 865.6,133.7 865.4,132.3 865.2,130.9 865.0,129.5 864.8,128.1 864.6,126.7 864.3,125.3 864.1,123.9 863.9,122.5 863.6,121.1 863.3,119.6 863.1,118.2 862.8,116.8 862.4,115.4 862.0,114.0 858.0,114.0 858.3,115.4 858.6,116.8 858.8,118.2 859.0,119.6 859.2,121.1 859.3,122.5 859.5,123.9 859.7,125.3 859.9,126.7 860.0,128.1 860.2,129.5 860.3,130.9 860.5,132.3 860.6,133.7 860.8,135.2 860.9,136.6 861.0,138.0 861.2,139.4 861.3,140.8 861.4,142.2 861.6,143.6 861.7,145.0 861.8,146.4 861.9,147.8 862.1,149.3 862.2,150.7 862.3,152.1 862.4,153.5 862.5,154.9 862.6,156.3 862.7,157.7 862.8,159.1 862.9,160.5 863.0,161.9 863.1,163.4 863.2,164.8 863.3,166.2 863.3,167.6 863.4,169.0 863.5,170.4 863.6,171.8 863.7,173.2 863.7,174.6 863.8,176.0 863.9,177.5 863.9,178.9 864.0,180.3 864.1,181.7 864.1,183.1 864.2,184.5 864.2,185.9 864.3,187.3 864.3,188.7 864.4,190.1 864.4,191.6 864.4,193.0 864.5,194.4 864.5,195.8 864.5,197.2 864.6,198.6 864.6,200.0 864.6,201.4 864.6,202.8 864.6,204.2 864.7,205.7 864.7,207.1 864.7,208.5 864.7,209.9 864.7,211.3 864.7,212.7 864.7,214.1 864.7,215.5 864.7,216.9 864.7,218.3 864.6,219.8 864.6,221.2 864.6,222.6 864.6,224.0 864.6,225.4 864.5,226.8 864.5,228.2 864.5,229.6 864.4,231.0 864.4,232.4 864.4,233.9 864.3,235.3 864.3,236.7 864.2,238.1 864.2,239.5 864.1,240.9 864.1,242.3 864.0,243.7 863.9,245.1 863.9,246.5 863.8,248.0 863.7,249.4 863.7,250.8 863.6,252.2 863.5,253.6 863.4,255.0 863.3,256.4 863.3,257.8 863.2,259.2 863.1,260.6 863.0,262.1 862.9,263.5 862.8,264.9 862.7,266.3 862.6,267.7 862.5,269.1 862.4,270.5 862.3,271.9 862.2,273.3 862.1,274.7 861.9,276.2 861.8,277.6 861.7,279.0 861.6,280.4 861.4,281.8 861.3,283.2 861.2,284.6 861.0,286.0 860.9,287.4 860.8,288.8 860.6,290.3 860.5,291.7 860.3,293.1 860.2,294.5 860.0,295.9 859.9,297.3 859.7,298.7 859.5,300.1 859.3,301.5 859.2,302.9 859.0,304.4 858.8,305.8 858.6,307.2 858.3,308.6 858.0,310.0" fill="#e0f2f1" stroke="#00695c" stroke-width="1.3"/>
<polygon points="698.0,310.0 697.6,308.6 697.2,307.2 696.9,305.8 696.7,304.4 696.4,302.9 696.1,301.5 695.9,300.1 695.7,298.7 695.4,297.3 695.2,295.9 695.0,294.5 694.8,293.1 694.6,291.7 694.4,290.3 694.2,288.8 694.0,287.4 693.8,286.0 693.6,284.6 693.4,283.2 693.3,281.8 693.1,280.4 692.9,279.0 692.8,277.6 692.6,276.2 692.4,274.7 692.3,273.3 692.1,271.9 692.0,270.5 691.8,269.1 691.7,267.7 691.5,266.3 691.4,264.9 691.3,263.5 691.1,262.1 691.0,260.6 690.9,259.2 690.8,257.8 690.6,256.4 690.5,255.0 690.4,253.6 690.3,252.2 690.2,250.8 690.1,249.4 690.0,248.0 689.9,246.5 689.8,245.1 689.8,243.7 689.7,242.3 689.6,240.9 689.5,239.5 689.5,238.1 689.4,236.7 689.3,235.3 689.3,233.9 689.2,232.4 689.2,231.0 689.1,229.6 689.1,228.2 689.0,226.8 689.0,225.4 689.0,224.0 688.9,222.6 688.9,221.2 688.9,219.8 688.9,218.3 688.8,216.9 688.8,215.5 688.8,214.1 688.8,212.7 688.8,211.3 688.8,209.9 688.8,208.5 688.8,207.1 688.9,205.7 688.9,204.2 688.9,202.8 688.9,201.4 689.0,200.0 689.0,198.6 689.0,197.2 689.1,195.8 689.1,194.4 689.2,193.0 689.2,191.6 689.3,190.1 689.3,188.7 689.4,187.3 689.5,185.9 689.5,184.5 689.6,183.1 689.7,181.7 689.8,180.3 689.8,178.9 689.9,177.5 690.0,176.0 690.1,174.6 690.2,173.2 690.3,171.8 690.4,170.4 690.5,169.0 690.6,167.6 690.8,166.2 690.9,164.8 691.0,163.4 691.1,161.9 691.3,160.5 691.4,159.1 691.5,157.7 691.7,156.3 691.8,154.9 692.0,153.5 692.1,152.1 692.3,150.7 692.4,149.3 692.6,147.8 692.8,146.4 692.9,145.0 693.1,143.6 693.3,142.2 693.4,140.8 693.6,139.4 693.8,138.0 694.0,136.6 694.2,135.2 694.4,133.7 694.6,132.3 694.8,130.9 695.0,129.5 695.2,128.1 695.4,126.7 695.7,125.3 695.9,123.9 696.1,122.5 696.4,121.1 696.7,119.6 696.9,118.2 697.2,116.8 697.6,115.4 698.0,114.0 702.0,114.0 701.7,115.4 701.4,116.8 701.2,118.2 701.0,119.6 700.8,121.1 700.7,122.5 700.5,123.9 700.3,125.3 700.1,126.7 700.0,128.1 699.8,129.5 699.7,130.9 699.5,132.3 699.4,133.7 699.2,135.2 699.1,136.6 699.0,138.0 698.8,139.4 698.7,140.8 698.6,142.2 698.4,143.6 698.3,145.0 698.2,146.4 698.1,147.8 697.9,149.3 697.8,150.7 697.7,152.1 697.6,153.5 697.5,154.9 697.4,156.3 697.3,157.7 697.2,159.1 697.1,160.5 697.0,161.9 696.9,163.4 696.8,164.8 696.7,166.2 696.7,167.6 696.6,169.0 696.5,170.4 696.4,171.8 696.3,173.2 696.3,174.6 696.2,176.0 696.1,177.5 696.1,178.9 696.0,180.3 695.9,181.7 695.9,183.1 695.8,184.5 695.8,185.9 695.7,187.3 695.7,188.7 695.6,190.1 695.6,191.6 695.6,193.0 695.5,194.4 695.5,195.8 695.5,197.2 695.4,198.6 695.4,200.0 695.4,201.4 695.4,202.8 695.4,204.2 695.3,205.7 695.3,207.1 695.3,208.5 695.3,209.9 695.3,211.3 695.3,212.7 695.3,214.1 695.3,215.5 695.3,216.9 695.3,218.3 695.4,219.8 695.4,221.2 695.4,222.6 695.4,224.0 695.4,225.4 695.5,226.8 695.5,228.2 695.5,229.6 695.6,231.0 695.6,232.4 695.6,233.9 695.7,235.3 695.7,236.7 695.8,238.1 695.8,239.5 695.9,240.9 695.9,242.3 696.0,243.7 696.1,245.1 696.1,246.5 696.2,248.0 696.3,249.4 696.3,250.8 696.4,252.2 696.5,253.6 696.6,255.0 696.7,256.4 696.7,257.8 696.8,259.2 696.9,260.6 697.0,262.1 697.1,263.5 697.2,264.9 697.3,266.3 697.4,267.7 697.5,269.1 697.6,270.5 697.7,271.9 697.8,273.3 697.9,274.7 698.1,276.2 698.2,277.6 698.3,279.0 698.4,280.4 698.6,281.8 698.7,283.2 698.8,284.6 699.0,286.0 699.1,287.4 699.2,288.8 699.4,290.3 699.5,291.7 699.7,293.1 699.8,294.5 700.0,295.9 700.1,297.3 700.3,298.7 700.5,300.1 700.7,301.5 700.8,302.9 701.0,304.4 701.2,305.8 701.4,307.2 701.7,308.6 702.0,310.0" fill="#eceff1" stroke="#90a4ae" stroke-width="0.8"/>
<text x="780" y="332" text-anchor="middle" fill="#00695c">skavl lamell-rotor</text>
<text x="30" y="20" fill="#90a4ae">éin lamell-profil (farga) kopiert kring aksen &#183; grå = spegel</text></svg>