<svg xmlns="http://www.w3.org/2000/svg" viewBox="0 0 940 300" font-family="sans-serif" font-size="13">
<rect width="940" height="300" fill="white"/>
<polygon points="59.9,219.1 61.0,219.5 62.2,219.8 63.4,220.1 64.6,220.3 65.8,220.5 67.0,220.7 68.1,220.8 69.3,220.9 70.5,221.0 71.6,221.1 72.8,221.1 73.9,221.1 75.1,221.2 76.3,221.2 77.4,221.2 78.6,221.2 79.7,221.2 80.9,221.2 82.0,221.2 83.2,221.2 84.4,221.2 85.5,221.2 86.7,221.1 87.8,221.1 89.0,221.1 90.1,221.1 91.3,221.1 92.4,221.1 93.6,221.1 94.8,221.1 95.9,221.1 97.1,221.1 98.2,221.0 99.4,220.9 100.5,220.8 101.6,220.7 102.8,220.6 103.9,220.5 105.1,220.3 105.8,217.2 106.4,217.2 106.9,217.1 107.4,217.0 107.9,216.8 108.3,216.7 108.8,216.5 109.2,216.3 109.7,216.0 110.1,215.8 110.5,215.5 110.9,215.2 111.3,214.9 111.7,214.6 112.1,214.2 112.4,213.9 112.7,213.5 113.0,213.1 113.3,212.7 113.6,212.2 113.8,211.8 114.0,211.4 114.2,210.9 114.4,210.4 114.5,210.0 114.6,209.5 114.7,209.0 114.8,208.5 114.8,208.0 114.9,207.5 114.9,207.0 114.8,206.5 114.8,206.0 114.7,205.5 114.8,205.0 114.8,204.4 114.9,203.9 114.9,203.3 114.8,202.7 114.7,202.2 114.6,201.6 114.5,201.0 114.3,200.4 114.1,199.8 113.9,199.3 113.6,198.7 113.3,198.1 112.9,197.6 112.6,197.0 112.0,196.4 117.8,188.3 118.8,188.7 119.8,189.3 120.8,189.9 121.8,190.6 122.7,191.4 123.7,192.2 124.5,193.0 125.4,193.9 126.2,194.8 126.9,195.8 127.7,196.9 128.3,197.9 128.9,199.1 129.5,200.2 130.0,201.4 130.4,202.6 130.6,203.9 130.8,205.2 130.9,206.5 130.9,207.8 130.8,209.1 130.7,210.4 130.5,211.7 130.2,212.9 129.9,214.2 129.6,215.4 129.1,216.7 128.6,217.9 128.1,219.0 127.4,220.2 126.8,221.3 126.1,222.4 125.3,223.4 124.4,224.4 123.6,225.4 122.6,226.3 121.7,227.1 120.7,227.9 119.6,228.7 118.5,229.4 117.4,230.1 116.3,230.7 115.1,231.2 113.9,231.7 112.7,232.1 111.4,232.5 110.1,232.8 108.9,233.0 107.7,233.1 106.1,230.3 105.0,230.4 103.8,230.5 102.7,230.7 101.6,230.8 100.4,230.9 99.3,231.0 98.1,231.3 97.0,231.5 95.9,231.7 94.7,232.0 93.6,232.2 92.5,232.4 91.3,232.6 90.2,232.9 89.1,233.1 87.9,233.3 86.8,233.6 85.7,233.8 84.5,234.0 83.4,234.3 82.3,234.5 81.2,234.7 80.0,235.0 78.9,235.2 77.8,235.5 76.6,235.7 75.5,236.0 74.4,236.3 73.3,236.5 72.1,236.8 71.0,237.2 69.9,237.5 68.8,237.9 67.7,238.3 66.5,238.7 65.4,239.2 64.3,239.7 63.2,240.3 62.1,240.9" fill="#eceff1" stroke="#37474f" stroke-width="1.2"/>
<rect x="58" y="182" width="4" height="72" fill="#b0bec5"/>
<text x="94" y="288" fill="#37474f">knagg kraftlinje</text>
<polygon points="365.3,223.5 366.5,223.4 367.6,223.3 368.8,223.2 369.9,223.1 371.0,222.9 372.2,222.8 373.3,222.7 374.5,222.6 375.6,222.5 376.8,222.3 377.9,222.2 379.0,222.1 380.2,222.0 381.3,221.9 382.5,221.7 383.6,221.6 384.8,221.5 385.9,221.4 387.1,221.3 388.2,221.1 389.3,221.0 390.5,220.9 391.6,220.8 392.8,220.7 393.9,220.5 395.1,220.4 396.2,220.3 397.3,220.2 398.5,220.0 399.6,219.9 400.8,219.8 401.9,219.7 403.1,219.6 404.2,219.4 405.4,219.3 406.5,219.2 407.6,219.1 408.8,219.0 409.9,218.8 411.0,218.7 411.6,218.7 412.2,218.6 412.8,218.4 413.3,218.3 413.9,218.1 414.4,217.9 414.9,217.6 415.4,217.4 415.9,217.1 416.4,216.8 416.9,216.4 417.3,216.1 417.7,215.7 418.1,215.3 418.5,214.9 418.9,214.4 419.2,214.0 419.6,213.5 419.9,213.0 420.1,212.5 420.4,212.0 420.6,211.4 420.8,210.9 421.0,210.3 421.1,209.8 421.2,209.2 421.3,208.7 421.3,208.1 421.4,207.5 421.4,206.9 421.3,206.4 421.3,205.8 421.2,205.2 421.1,204.7 420.9,204.1 420.7,203.6 420.6,203.0 420.3,202.5 420.1,202.0 419.8,201.5 419.5,201.0 419.2,200.5 418.8,200.1 418.5,199.6 418.1,199.2 417.6,198.8 417.2,198.4 416.8,198.1 416.2,197.7 423.7,187.1 424.6,187.7 425.5,188.4 426.4,189.2 427.3,190.1 428.2,191.0 428.9,191.9 429.7,192.9 430.4,193.9 431.0,194.9 431.6,196.0 432.1,197.1 432.6,198.2 433.1,199.4 433.4,200.5 433.7,201.7 434.0,202.9 434.2,204.1 434.3,205.3 434.4,206.6 434.4,207.8 434.3,209.0 434.2,210.2 434.0,211.4 433.8,212.6 433.5,213.8 433.1,215.0 432.7,216.1 432.2,217.3 431.7,218.4 431.1,219.4 430.5,220.5 429.8,221.5 429.1,222.5 428.3,223.4 427.5,224.3 426.6,225.2 425.7,226.0 424.8,226.7 423.8,227.5 422.7,228.1 421.7,228.7 420.6,229.3 419.5,229.8 418.4,230.3 417.2,230.7 416.0,231.0 414.8,231.3 413.6,231.5 412.5,231.6 411.3,231.8 410.1,231.9 409.0,232.0 407.9,232.1 406.7,232.3 405.6,232.4 404.4,232.5 403.3,232.6 402.1,232.7 401.0,232.9 399.8,233.0 398.7,233.1 397.6,233.2 396.4,233.3 395.3,233.5 394.1,233.6 393.0,233.7 391.8,233.8 390.7,233.9 389.6,234.1 388.4,234.2 387.3,234.3 386.1,234.4 385.0,234.5 383.8,234.7 382.7,234.8 381.5,234.9 380.4,235.0 379.3,235.1 378.1,235.3 377.0,235.4 375.8,235.5 374.7,235.6 373.5,235.7 372.4,235.9 371.3,236.0 370.1,236.1 369.0,236.2 367.8,236.3 366.7,236.5" fill="#eceff1" stroke="#37474f" stroke-width="1.2"/>
<rect x="363" y="182" width="4" height="72" fill="#b0bec5"/>
<text x="399" y="288" fill="#37474f">knagg kanalisert</text>
<polygon points="670.3,223.5 671.5,223.4 672.6,223.3 673.8,223.2 674.9,223.1 676.0,222.9 677.2,222.8 678.3,222.7 679.5,222.6 680.6,222.5 681.8,222.3 682.9,222.2 684.0,222.1 685.2,222.0 686.3,221.9 687.5,221.7 688.6,221.6 689.8,221.5 690.9,221.4 692.1,221.3 693.2,221.1 694.3,221.0 695.5,220.9 696.6,220.8 697.8,220.7 698.9,220.5 700.1,220.4 701.2,220.3 702.3,220.2 703.5,220.0 704.6,219.9 705.8,219.8 706.9,219.7 708.1,219.6 709.2,219.4 710.4,219.3 711.5,219.2 712.6,219.1 713.8,219.0 714.9,218.8 716.0,218.7 716.6,218.7 717.2,218.6 717.8,218.4 718.3,218.3 718.9,218.1 719.4,217.9 719.9,217.6 720.4,217.4 720.9,217.1 721.4,216.8 721.9,216.4 722.3,216.1 722.7,215.7 723.1,215.3 723.5,214.9 723.9,214.4 724.2,214.0 724.6,213.5 724.9,213.0 725.1,212.5 725.4,212.0 725.6,211.4 725.8,210.9 726.0,210.3 726.1,209.8 726.2,209.2 726.3,208.7 726.3,208.1 726.4,207.5 726.4,206.9 726.3,206.4 726.3,205.8 726.2,205.2 726.1,204.7 725.9,204.1 725.7,203.6 725.6,203.0 725.3,202.5 725.1,202.0 724.8,201.5 724.5,201.0 724.2,200.5 723.8,200.1 723.5,199.6 723.1,199.2 722.6,198.8 722.2,198.4 721.8,198.1 721.2,197.7 728.7,187.1 729.6,187.7 730.5,188.4 731.4,189.2 732.3,190.1 733.2,191.0 733.9,191.9 734.7,192.9 735.4,193.9 736.0,194.9 736.6,196.0 737.1,197.1 737.6,198.2 738.1,199.4 738.4,200.5 738.7,201.7 739.0,202.9 739.2,204.1 739.3,205.3 739.4,206.6 739.4,207.8 739.3,209.0 739.2,210.2 739.0,211.4 738.8,212.6 738.5,213.8 738.1,215.0 737.7,216.1 737.2,217.3 736.7,218.4 736.1,219.4 735.5,220.5 734.8,221.5 734.1,222.5 733.3,223.4 732.5,224.3 731.6,225.2 730.7,226.0 729.8,226.7 728.8,227.5 727.7,228.1 726.7,228.7 725.6,229.3 724.5,229.8 723.4,230.3 722.2,230.7 721.0,231.0 719.8,231.3 718.6,231.5 717.5,231.6 716.3,231.8 715.1,231.9 714.0,232.0 712.9,232.1 711.7,232.3 710.6,232.4 709.4,232.5 708.3,232.6 707.1,232.7 706.0,232.9 704.8,233.0 703.7,233.1 702.6,233.2 701.4,233.3 700.3,233.5 699.1,233.6 698.0,233.7 696.8,233.8 695.7,233.9 694.6,234.1 693.4,234.2 692.3,234.3 691.1,234.4 690.0,234.5 688.8,234.7 687.7,234.8 686.5,234.9 685.4,235.0 684.3,235.1 683.1,235.3 682.0,235.4 680.8,235.5 679.7,235.6 678.5,235.7 677.4,235.9 676.3,236.0 675.1,236.1 674.0,236.2 672.8,236.3 671.7,236.5" fill="#eceff1" stroke="#37474f" stroke-width="1.2"/>
<rect x="668" y="182" width="4" height="72" fill="#b0bec5"/>
<rect x="680.0" y="222.7" width="4.0" height="3.0" fill="white" stroke="#c62828" stroke-width="1.2"/>
<text x="704" y="288" fill="#37474f">knagg medvite-svak</text>
</svg>